<?xml version="1.0" encoding="utf-8"?>
<!-- Generator: Adobe Illustrator 21.0.2, SVG Export Plug-In . SVG Version: 6.00 Build 0)  -->
<svg version="1.1" id="Layer_1" xmlns="http://www.w3.org/2000/svg" xmlns:xlink="http://www.w3.org/1999/xlink" x="0px" y="0px"
	 viewBox="0 0 1897.9 2161.4" style="enable-background:new 0 0 1897.9 2161.4;" xml:space="preserve">
<style type="text/css">
	.st0{fill:#273F8A;}
	.st1{fill:#FFFEF2;}
	.st2{fill:#FFE5C7;}
	.st3{fill:#ED2024;}
</style>
<g>
	<path class="st0" d="M889.4,1569.1c-10.5,0-21-4-29-12v0L145.2,841.9c-7.7-7.7-12-18-12-29c0-11,4.3-21.2,12-29L860.4,68.7
		c16-16,42-16,58,0l715.2,715.2c16,16,16,42,0,58l-715.2,715.2C910.4,1565.1,899.9,1569.1,889.4,1569.1z M881.6,1535.9
		c4.3,4.3,11.3,4.3,15.6,0l715.2-715.2c4.3-4.3,4.3-11.3,0-15.6L897.1,89.9c-4.3-4.3-11.3-4.3-15.6,0L166.4,805.1
		c-2.1,2.1-3.2,4.8-3.2,7.8c0,2.9,1.1,5.7,3.2,7.8L881.6,1535.9z"/>
</g>
<path class="st1" d="M1501,1124.2l-209.4-462.5c-2.3-5.1-6.8-9-12.3-10.5c-5.4-1.5-11.2-0.5-15.9,2.7
	c-31.1,21.4-193.1,127.7-333.9,122.8c-204.7-7.2-262.4-35.7-399.1-116.9c-4.5-2.7-10.1-3.4-15.1-1.9c-5.1,1.5-9.3,5.1-11.7,9.8
	l-234.1,473.1c-2.3,4.6-2.6,9.8-1,14.6c1.6,4.8,5.1,8.7,9.6,11c40,19.6,255.6,118.8,575.7,145.8c36,3,71.6,4.6,106.7,4.6
	c45.2,0,89.3-2.5,132.2-7.6c66.4-7.8,129.7-21.6,188.2-41.1c92.5-30.8,173.5-76.8,216.6-122.9
	C1502.8,1139.4,1504.1,1131.2,1501,1124.2z M1142.8,746c61.4-28,110.5-59.8,130.6-73.5l94.7,209c-40.7,29.4-114.5,64.2-197.4,92.9
	l-71.8-209.9C1113.2,759,1127.9,752.8,1142.8,746z M878.8,795.2l5,236.1c-61.8-1.8-144.8-18.2-232.3-46l78-210.7
	C770.6,784.7,817.9,791.4,878.8,795.2z M521.5,678.8c71.4,42.4,122.7,71.4,187.6,90.3l-77.6,209.7c-0.4-0.1-0.8-0.3-1.2-0.4
	c-87.6-29.4-166.4-66-209.1-96.8L521.5,678.8z M289.2,1148.3l122.6-247.7c45.3,31.9,123,67.8,211.9,97.7c0.2,0.1,0.4,0.1,0.6,0.2
	l-88,237.7C402.7,1200.8,315.5,1161.1,289.2,1148.3z M855.6,1291.1c-114.3-9.6-215.1-28.6-299-49.7l87.5-236.4
	c90.2,28.7,176,45.6,240.1,47.3l5.1,241.2C878.2,1292.8,866.9,1292.1,855.6,1291.1z M899.8,796.4c9.3,0.5,19,0.9,29,1.2
	c45.2,1.6,95.5-7.1,150.3-26l71.6,209.5c-92.6,30.5-181,48.5-245.9,50.3L899.8,796.4z M910.4,1294.5l-5.2-242.2
	c67-1.8,157.7-20.3,252.2-51.4l87.6,256.1C1144,1286.6,1029.8,1299.4,910.4,1294.5z M1274.3,1248c-3,1-6.1,2-9.1,2.9l-87.8-256.7
	c83.5-28.9,156.2-62.9,199.5-93.3l104.4,230.6C1464.7,1149.1,1404.3,1204.7,1274.3,1248z"/>
<path class="st2" d="M1368,881.5c-40.7,29.4-114.5,64.2-197.4,92.9l-71.8-209.9c14.4-5.5,29.1-11.6,44-18.4
	c61.4-28,110.5-59.8,130.6-73.5L1368,881.5z"/>
<path d="M1840.2,576.3c-6.9-7.4-17.2-15.4-31.4-24.6c-55.6-35.8-142.5-40.9-212-41.4c-1.6,0-3.1,0-4.6,0h0
	c-44.4,0-65.2,4.7-96.7,11.8c-18.3,4.1-41.2,9.3-75.3,14.9c-92.7,15.3-156.8,24.3-157.4,24.4c0,0-0.1,0-0.1,0c0,0-0.1,0-0.1,0
	c-0.3,0.1-35.1,5.3-78.8,5.3c-19.4,0-37.7-1-54.5-3.1c-0.1,0-0.2,0-0.2,0c8.5-9.3,23.9-23.4,44.3-31.5
	c36.5-14.5,90.7-36.1,91.4-36.3c0,0,0,0,0,0c41.3-16.5,78.6-30.1,146.8-50.9c60.6-18.5,99-21.5,143.6-25c7.1-0.6,14.4-1.1,22-1.8
	c26.9-2.3,61.3-9.6,94.4-20.2c19.7-6.3,55.3-18.9,72.7-33.4c10.9-9.1,26.1-23.1,36.5-38.2c17.5-25.4,13-42.2,6.1-51.8
	c-6.5-9.1-15.8-13.9-26.7-13.9c-17.1,0-36.3,11.5-65.4,29c-4,2.4-8.1,4.9-12.4,7.4c-32.4,19.2-51.3,25.1-81,25.1
	c-7.5,0-16.3-0.4-28.3-1.2c-6.1-0.4-12.7-0.6-19.6-0.6c-55.8,0-126.6,13.1-194.2,36.1c-73.4,24.9-127.7,53.7-139.1,60
	c-8.9,1.8-41.6,8.7-77.7,19.9c-56.5,17.4-91.8,35.8-107.6,56.1c-7.1-9.6-19.6-23.6-38.6-34.7c-24.3-14.2-45.9-23.6-72.4-23.6
	c-2.7,0-5.4,0.1-8.2,0.3c-2.8,0.2-5.5,1.2-7.8,2.8c-2.6-2-5.8-3.1-9.1-3.1c-0.5,0-1,0-1.5,0.1c-10.4,1-31.8,8.8-45.9,31.2
	c-22.5,35.7-19.5,93.6,8.8,172.1c2,5.4,6.9,9.3,12.6,9.8c0.5,0,1,0.1,1.5,0.1c5.2,0,10.1-2.7,12.8-7.3c2.4-3.9,6.2-9.9,10.9-16.5
	c-4.8,8.6-8.6,16.2-11.4,22.6c-5.4,12.4-9.6,25.2-3.4,35.1c4.2,6.8,13.7,14.8,53.7,27.2c20.4,6.3,39.4,10.9,40.2,11.1
	c1.2,0.3,2.3,0.4,3.5,0.4c2.6,0,5.1-0.7,7.3-1.9c0.4,0.2,0.8,0.4,1.2,0.6c2,0.9,4.1,1.3,6.1,1.3c3.3,0,6.7-1.1,9.4-3.3
	c0.2-0.1,16.4-13.1,36.8-26.2c34.1-22,51.4-26.5,58.7-27.2c3.4-0.3,6.5-1.8,8.9-4.1c1,0.6,2,1.2,3.1,1.6
	c2.1,0.8,52.8,19.3,86.2,19.3c0.4,0,0.8,0,1.2,0c31.1-0.4,73.5-11.4,81.5-13.5c44.2-4.2,90.1-11.9,138.6-20.1
	c67.8-11.4,137.9-23.1,202.5-24.6c3.2-0.1,6.5-0.1,9.7-0.1c52.3,0,93,9.7,122.7,16.7c19.2,4.5,34.3,8.1,47.2,8.1
	c10.1,0,18.3-2.2,25-6.8c7.9-5.4,13.2-9.7,17.1-14.2c6.2-7,9.2-14.5,9.1-22.5C1852.7,594.1,1848.6,585.3,1840.2,576.3z M1199.1,665
	c-31,0.4-82-18.3-82-18.3c-10.7-30,10.3-68,10.3-68c55.2,6.7,110.4,1.1,130-1.3l13.4,76.2C1256.5,657.2,1223.6,664.7,1199.1,665z
	 M1818.1,627.3c-25,17-85-23-196.5-20.5c-108.9,2.4-230.3,33.2-336,44.1l-13.3-75.7c19.4-2.8,75.2-11,150.3-23.4
	c94-15.5,101.5-27,174-26.5s153.5,6.5,204,39S1843.1,610.3,1818.1,627.3z"/>
<path class="st2" d="M1481.3,1131.6c-16.6,17.5-77,73.1-207,116.4c-3,1-6.1,2-9.1,2.9l-87.8-256.7c83.5-28.9,156.2-62.9,199.5-93.3
	L1481.3,1131.6z"/>
<path class="st2" d="M1245.1,1257.1c-101,29.5-215.3,42.3-334.7,37.4l-5.2-242.2c67-1.8,157.7-20.3,252.2-51.4L1245.1,1257.1z"/>
<path class="st2" d="M1150.7,981.1c-92.6,30.5-181,48.5-245.9,50.3l-5-235c9.3,0.5,19,0.9,29,1.2c45.2,1.6,95.5-7.1,150.3-26
	L1150.7,981.1z"/>
<path class="st2" d="M883.8,1031.3c-61.8-1.8-144.8-18.2-232.3-46l78-210.7c41.1,10.2,88.4,16.8,149.3,20.6L883.8,1031.3z"/>
<path class="st2" d="M889.4,1293.5c-11.2-0.7-22.5-1.4-33.8-2.4c-114.3-9.6-215.1-28.6-299-49.7l87.5-236.4
	c90.2,28.7,176,45.6,240.1,47.3L889.4,1293.5z"/>
<path class="st2" d="M624.2,998.5l-88,237.7c-133.5-35.3-220.7-75.1-247-87.8l122.6-247.7c45.3,31.9,123,67.8,211.9,97.7
	C623.8,998.3,624,998.4,624.2,998.5z"/>
<path class="st2" d="M709.1,769.1l-77.6,209.7c-0.4-0.1-0.8-0.3-1.2-0.4c-87.6-29.4-166.4-66-209.1-96.8l100.3-202.7
	C592.9,721.2,644.2,750.2,709.1,769.1z"/>
<path class="st1" d="M898.6,449.1c0,0-87.5,8.7-24.5,183.2c0,0,32.5-54,61.5-67.5c0,0-13.5-33,8-44.5
	C943.6,520.3,927,482,898.6,449.1z"/>
<path class="st1" d="M1012.5,534.5c0,0,1.7-16.3,16-24.1c0,0-12-23.4-40-39.7c-28-16.3-47.3-23-72-21.3c0,0,15,19.7,39.3,65.7
	C955.8,515,972.1,516.6,1012.5,534.5z"/>
<path class="st1" d="M941.8,538.8c-2.1,10.5,25.4,23.4,56.8,21c16.3-1.3,10.3-13.8-2.3-19S944.2,526.8,941.8,538.8z"/>
<path class="st1" d="M946.5,574c0,0,34,42.7,34,131c0,0-76.3-18.3-84.7-31.7C887.5,660,946.5,574,946.5,574z"/>
<circle class="st1" cx="1067.1" cy="566.3" r="19"/>
<path d="M792.4,643.7l-80.5-128.5l-0.1-0.2l-0.1-0.2c-7.1-10.6-16.8-19.7-28.2-25.8c-5.5-2.9-11-5-17.2-5.6
	c-6.7-0.6-13.4-1.1-20.2-1.6c-1.4-4.4-4.9-8.1-9.6-9.6c0,0-366.7-118.5-372.8-120.5l-16.9-5.5c-8.9-2.9-18.3-4.3-27.9-4.3
	c-11.6,0-23.5,2.1-36.6,6.3c-69.7,22.6-102.5,56-122.1,76c-2,2-3.8,3.9-5.5,5.6c-5.4,5.3-8.7,12.4-9.4,20
	c-0.9,10.7,3.7,21.1,12.4,27.9l19.4,15.2c2.9,3.2,5.8,6,8.9,8.6c2.8,2.4,16.2,11.7,20.3,13.7c7.6,3.8,16.1,6.7,26.1,8.9l389.6,86
	c1.1,0.2,2.2,0.4,3.2,0.4c4.5,0,8.8-2,11.6-5.5c6.3,4.1,13,8.1,20,12.2l2,1.2l2.3,0.5l215.4,47.5l34.9,7.7L792.4,643.7z"/>
<path class="st3" d="M145.1,413.5c36.6-31.3,92.5-43.7,113.8-47.5l-16.9-5.5c0,0,0,0,0,0c-1.1-0.3-2.1-0.7-3.2-0.9
	c-0.4-0.1-0.7-0.2-1.1-0.3c-0.7-0.2-1.4-0.4-2.2-0.5c-0.4-0.1-0.8-0.2-1.2-0.3c-0.7-0.1-1.4-0.3-2-0.4c-0.4-0.1-0.8-0.1-1.2-0.2
	c-0.7-0.1-1.4-0.2-2.1-0.3c-0.4-0.1-0.8-0.1-1.1-0.2c-0.8-0.1-1.7-0.2-2.5-0.3c-0.2,0-0.5,0-0.7-0.1c-1.1-0.1-2.1-0.1-3.2-0.2
	c-0.3,0-0.6,0-0.9,0c-0.7,0-1.5,0-2.2,0c-0.9,0-1.8,0-2.8,0.1c-0.3,0-0.7,0-1,0c-1.2,0.1-2.5,0.2-3.7,0.3c-0.3,0-0.5,0.1-0.8,0.1
	c-1,0.1-2,0.2-3,0.3c-0.4,0.1-0.9,0.1-1.3,0.2c-0.8,0.1-1.6,0.2-2.4,0.4c-0.5,0.1-1,0.2-1.5,0.3c-0.8,0.1-1.5,0.3-2.3,0.5
	c-0.5,0.1-1,0.2-1.5,0.3c-0.8,0.2-1.6,0.4-2.3,0.6c-0.5,0.1-0.9,0.2-1.4,0.4c-0.9,0.2-1.7,0.5-2.6,0.7c-0.4,0.1-0.8,0.2-1.2,0.3
	c-1.2,0.4-2.5,0.7-3.7,1.2c-73.2,23.7-103,59.5-121.7,78c-0.7,0.7-1.4,1.5-2,2.4c-1.7,2.5-2.8,5.4-3,8.3c0,0.4-0.1,0.7-0.1,1.1
	s0,0.7,0,1.1c0.2,3.9,1.8,7.6,4.4,10.5c0.7,0.8,1.5,1.5,2.3,2.2l16.7,13.1l3.6,2.8h0c0,0,0.1,0.1,0.1,0.1c2.8,3.1,5.6,5.8,8.4,8.3
	C97,470.9,104.8,448,145.1,413.5z"/>
<path class="st3" d="M386,504c-1-7.7-2.2-16.2-1.5-24c0.1-1.1,0.3-2.1,0.5-3.1c0.9-4.8,2.7-7.2,3.8-8.7c0.4-0.6,1.3-1.2,2.4-1.8
	c2.3-1.9,5.1-3.2,8-4.3c10.3-3.9,21.6-4.9,32.5-6c10.7-1.2,21.4-2,32.1-2.9c17.3-1.3,36.3-2.5,54.1-3.5l-224.4-72.5
	c-20.2,3.3-97.3,18-137.1,52c-43.3,37-43.7,53.3-43.6,72.6c6.7,3.3,14.1,5.8,22.7,7.7l268.5,59.3c-3.9-10.4-9.3-25.7-13.3-41
	C388.6,519.9,387.1,512,386,504z"/>
<path class="st3" d="M453.1,500.1c-0.6-0.6-1.3-1.2-2-1.7c-2.6-2-5.7-3.4-9-3.9c-2.7-0.4-5.8,0-7.6,2c-1.4,1.6-1.7,4-1.2,6
	c0.5,2.1,1.9,3.8,3.4,5.3c3.9,3.6,10.4,6.3,15.6,3.9c1.4-0.6,2.6-1.7,3.2-3.1c0.8-1.8,0.5-4.1-0.4-5.8
	C454.7,501.8,454,500.9,453.1,500.1z"/>
<path class="st3" d="M468.7,513.7c-0.5,1.6-1.1,3.2-2,4.7c-4.7,8-14,10-23.7,8.6c-3.6-0.6-7.3-1.8-10.7-3.8
	c-5.9-3.5-10.4-8.7-12.7-14.7c-2.4-6.4-2-13.2,1.2-18.7c6.4-10.9,22-13.8,34.7-6.3c3.6,2.1,6.7,4.2,9.1,6.5c0,0,0,0,0,0
	c0.3,0.3,0.6,0.6,0.9,1c0.1,0.1,0.2,0.2,0.3,0.3c0.3,0.3,0.6,0.6,0.8,1c0.1,0.1,0.2,0.2,0.3,0.3c0.2,0.3,0.4,0.5,0.6,0.8
	c0.1,0.1,0.2,0.2,0.3,0.4c0.2,0.3,0.4,0.6,0.6,1c0.1,0.2,0.2,0.3,0.3,0.5c0.1,0.3,0.3,0.5,0.4,0.8c0.1,0.2,0.2,0.4,0.3,0.7
	c0.1,0.2,0.2,0.4,0.2,0.6c0.1,0.2,0.1,0.4,0.2,0.6c0.1,0.3,0.2,0.6,0.3,1c0.1,0.2,0.1,0.5,0.2,0.7c0,0.2,0.1,0.4,0.1,0.6
	c0.1,0.4,0.1,0.8,0.1,1.2c0,0.2,0,0.4,0,0.5c0,0.3,0,0.5,0,0.8c0,0.4,0,0.9,0,1.3c0,0,0-0.1,0-0.1c0-0.1,0-0.2,0.1-0.3
	c0.2-0.5,0.4-1,0.6-1.5c0.1-0.2,0.2-0.3,0.3-0.5c0.2-0.3,0.3-0.7,0.5-1c0.1-0.2,0.2-0.4,0.4-0.6c0.2-0.3,0.3-0.6,0.5-0.8
	c0.1-0.2,0.3-0.4,0.5-0.6c0.2-0.2,0.4-0.5,0.6-0.7c0.2-0.2,0.4-0.4,0.5-0.6c0.2-0.2,0.4-0.5,0.6-0.7c0.2-0.2,0.4-0.4,0.6-0.6
	c0.2-0.2,0.5-0.4,0.7-0.6c0.2-0.2,0.5-0.4,0.7-0.6c0.2-0.2,0.5-0.4,0.8-0.6c0.2-0.2,0.5-0.4,0.8-0.5c0.3-0.2,0.5-0.4,0.8-0.6
	c0.3-0.2,0.6-0.3,0.8-0.5c0.3-0.2,0.6-0.3,0.8-0.5c0.3-0.2,0.6-0.3,0.9-0.5c0.3-0.2,0.6-0.3,0.9-0.5c0.3-0.2,0.6-0.3,1-0.5
	c0.3-0.2,0.6-0.3,0.9-0.5c0.3-0.2,0.7-0.3,1-0.4c0.3-0.1,0.6-0.3,1-0.4c0.4-0.1,0.7-0.3,1.1-0.4c0.3-0.1,0.7-0.3,1-0.4
	c0.4-0.1,0.8-0.3,1.2-0.4c0.4-0.1,0.7-0.2,1.1-0.4c0.4-0.1,0.8-0.3,1.2-0.4c0.4-0.1,0.7-0.2,1.1-0.3c0.4-0.1,0.8-0.2,1.3-0.4
	c0.4-0.1,0.7-0.2,1.1-0.3c0.4-0.1,0.9-0.2,1.3-0.3c0.4-0.1,0.8-0.2,1.1-0.3c0.5-0.1,0.9-0.2,1.4-0.3c0.4-0.1,0.8-0.2,1.2-0.3
	c0.5-0.1,1-0.2,1.4-0.3c0.4-0.1,0.8-0.2,1.2-0.2c0.5-0.1,1-0.2,1.5-0.3c0.4-0.1,0.8-0.1,1.2-0.2c0.5-0.1,1-0.2,1.5-0.3
	c0.4-0.1,0.8-0.1,1.2-0.2c0.5-0.1,1.1-0.2,1.6-0.2c0.4-0.1,0.8-0.1,1.2-0.2c0.5-0.1,1.1-0.1,1.6-0.2c0.4-0.1,0.8-0.1,1.2-0.1
	c0.6-0.1,1.1-0.1,1.7-0.2c0.4,0,0.8-0.1,1.2-0.1c0.6-0.1,1.2-0.1,1.7-0.2c0.4,0,0.8-0.1,1.2-0.1c0.6-0.1,1.2-0.1,1.8-0.2
	c0.4,0,0.8-0.1,1.2-0.1c0.6,0,1.2-0.1,1.8-0.1c0.4,0,0.8-0.1,1.2-0.1c0.6,0,1.2-0.1,1.9-0.1c0.4,0,0.8,0,1.2-0.1
	c0.6,0,1.3-0.1,1.9-0.1c0.4,0,0.8,0,1.2-0.1c0.6,0,1.3-0.1,1.9-0.1c0.4,0,0.8,0,1.2,0c0.7,0,1.3,0,2-0.1c0.4,0,0.8,0,1.2,0
	c0.7,0,1.4,0,2,0c35.6-0.7,74.3,3.7,90.3,5.3l-73.7-23.8c-1,0-1.9,0.1-2.9,0.1c-0.2,0-0.3,0-0.5,0c-0.9,0-1.7,0.1-2.6,0.1
	c-0.1,0-0.3,0-0.4,0c-6.5,0.3-13.6,0.7-21.1,1.1c0,0,0,0,0,0c-51.6,2.7-121,7.2-126,12.4c-0.5,0.5-1,1.2-1.4,1.9c0,0,0,0,0,0
	c0,0,0,0.1-0.1,0.1c-0.1,0.2-0.3,0.4-0.4,0.7c-0.1,0.2-0.2,0.3-0.3,0.5c-0.1,0.2-0.2,0.5-0.3,0.7c-0.1,0.2-0.2,0.4-0.2,0.6
	c-0.1,0.3-0.2,0.7-0.4,1c-0.1,0.3-0.2,0.6-0.3,0.9c-0.1,0.2-0.1,0.4-0.2,0.7c-0.1,0.3-0.1,0.6-0.2,0.9c0,0.2-0.1,0.4-0.1,0.7
	c-0.1,0.3-0.1,0.7-0.2,1c0,0.2-0.1,0.4-0.1,0.6c-0.1,0.6-0.1,1.1-0.2,1.7c0,0,0,0,0,0c-0.1,0.7-0.1,1.3-0.1,2c0,0,0,0.1,0,0.1
	c0,0.7,0,1.4,0,2.2v0c0.2,25.1,16.3,67,21.4,79.9l3.1,0.7l36,7.9l64.4,14.2C495.3,565.2,467.7,533.4,468.7,513.7z"/>
<path class="st1" d="M699.1,523.1C699.1,523.1,699.1,523.1,699.1,523.1c-0.5-0.8-1-1.5-1.6-2.2c-0.2-0.2-0.3-0.4-0.5-0.7
	c-0.4-0.5-0.8-1.1-1.2-1.6c-0.2-0.2-0.4-0.4-0.5-0.7c-0.5-0.7-1.1-1.3-1.7-2c0,0-0.1-0.1-0.1-0.1c0,0,0,0,0,0
	c-3.4-3.7-7.1-7.1-11.2-10c-33.5,9.2-103.7,53.8-144.3,81.9c4.7,3.1,9.3,6,13.7,8.8c0,0,0,0,0,0c0.3,0.2,0.7,0.4,1,0.6
	c0.4,0.2,0.8,0.5,1.1,0.7c1.4,0.9,2.9,1.7,4.2,2.6c0.1,0.1,0.2,0.1,0.3,0.2c0.9,0.5,1.8,1.1,2.7,1.6c1,0.6,2,1.2,3,1.7l215.4,47.5
	L699.1,523.1z"/>
<path class="st3" d="M527.8,576.7c0,0-45-48.7-43.9-60.1c1.3-13.2,2.2-29.5,176.1-18.7C659.9,497.9,602.4,523.8,527.8,576.7z"/>
<path class="st3" d="M132.1,1780c-15-15-4-22.5,39-40.5s105.5-39.5,124-45.5s66.5,25.5,48,40.5s-38.5-5-72,14s-32.5,32-32,62.5
	s3,243,4.5,269.5s-37.5,27.5-47,3s5.5-30,5-104s-1-140-1.5-167s-18-38-32-33S146.6,1794.5,132.1,1780z"/>
<path class="st3" d="M1087.6,1780c-15-15-4-22.5,39-40.5s105.5-39.5,124-45.5s66.5,25.5,48,40.5s-38.5-5-72,14s-32.5,32-32,62.5
	s3,243,4.5,269.5s-37.5,27.5-47,3s5.5-30,5-104s-1-140-1.5-167s-18-38-32-33S1102.1,1794.5,1087.6,1780z"/>
<path class="st3" d="M1481.1,1808.5c0.5,30.5-0.5,245.5,1,272s-37.5,27.5-47,3s5.5-30,5-104s-1-140-1.5-167
	c-0.2-13.2-6.3-104.2,23.5-119.3C1502.1,1673,1480.9,1792.9,1481.1,1808.5z"/>
<path class="st3" d="M1388.5,1842c0.1,7.8-13.4,16.8-13.1,40c1,67.8,2.7,178.8,3.8,198.5c1.5,26.5-37.5,27.5-47,3s5.5-30,5-104
	s-1-118.1-1.5-145.1S1388,1811.5,1388.5,1842z"/>
<path class="st3" d="M404.5,2104.7c16.6-1.2,22.7-10.7,20.7-40.7s-13.3-72-5.3-102.7c8-30.7,54.7-79.3,76-97.3s33.3-28.7,49.3-26.7
	s18-14-6.7-23.3s-49.3,13.3-62.7,23.3s-28.9,27.7-39.2,40.9s-13.8,2.8-13.3-16s-7.9-45.6-20.6-48.9c-12.7-3.3-25.7-9.7-25.7,31
	c0,40.7-0.7,94.3,0,134.3c0.5,32.5-3.5,96.9,12.6,118.7C393.5,2102.4,398.3,2105.1,404.5,2104.7z"/>
<path class="st3" d="M645.4,2048.8c11,0,23.5-4.8,31.3-50.5s18.9-90.4,9.2-165.6c-4-31,44.7-25,45.7,21s-4.7,118.3-17,164.7
	s-18.8,73.3-69.1,73.3s-59.6-28.3-68.6-70.7c-9-42.3-7.7-75.3-4-113.7c3.7-38.3-0.7-94.3,14.7-96.5s17.4-2.7,27-3.4
	c9.7-0.7,14.6,5.2,10,36.5s-14.7,73.3-13.3,116.7C612.5,2004,618.6,2048.8,645.4,2048.8z"/>
<path class="st3" d="M929.1,2004c-9.5-0.7-18-1.2-18.8,6.7c-0.8,7.8-0.8,11.3-22.5,30.2c-21.7,18.8-34,19.5-45.8,14.3
	c-11.8-5.2-31-45.7-10.5-51.5s82.3-40,95.7-107.7c13.3-67.7-28.7-84-60.7-84s-100,62.7-100,140.3c0,77.7,32.9,118.9,45.4,128.4
	s74.5,17.5,104.3-7.8C957,2038.4,946.4,2005.2,929.1,2004z M877.3,1856.3c41.8-0.3-21.4,120.3-51.4,109.8S839.3,1856.6,877.3,1856.3
	z"/>
<path class="st3" d="M1692.6,2004c-9.5-0.7-18-1.2-18.8,6.7c-0.8,7.8-0.8,11.3-22.5,30.2c-21.7,18.8-34,19.5-45.8,14.3
	c-11.8-5.2-31-45.7-10.5-51.5s82.3-40,95.7-107.7c13.3-67.7-28.7-84-60.7-84s-100,62.7-100,140.3c0,77.7,32.9,118.9,45.4,128.4
	s74.5,17.5,104.3-7.8C1720.4,2038.4,1709.8,2005.2,1692.6,2004z M1640.8,1856.3c41.8-0.3-21.4,120.3-51.4,109.8
	S1602.7,1856.6,1640.8,1856.3z"/>
<path class="st3" d="M1354.5,1770.3c24.9,4.7,25.7-3.7,25.3-17.7c-0.3-14-3.3-30.7,4.3-52.7s-38.7-28-40.7-4.3
	c-1.7,20.3-14.4,50.2-7.6,66C1338.7,1768.4,1347,1768.9,1354.5,1770.3z"/>
<path class="st0" d="M1800.6,564.3c-50.5-32.5-131.5-38.5-204-39s-80,11-174,26.5c-75.2,12.4-131,20.6-150.3,23.4l13.3,75.7
	c105.7-10.9,227.1-41.6,336-44.1c111.5-2.5,171.5,37.5,196.5,20.5S1851.1,596.8,1800.6,564.3z"/>
<path class="st1" d="M1127.5,578.7c0,0-21,38-10.3,68c0,0,51,18.7,82,18.3c24.5-0.3,57.3-7.8,71.7-11.4l-13.4-76.2
	C1237.9,579.8,1182.7,585.4,1127.5,578.7z"/>
<path class="st1" d="M1045.1,503.3c-30.7,43.7-26,46.7-20.3,96c0,0-24,4-75.3-31c0,0,39.7,27.3,45.7,136.7c0,0,66.3-53,103.3-56.7
	c0,0-1.5-11.5,0.7-27.7c0.8-6.3,4.5-11.5,6.5-17c3.3-9.2,2.5-23.8,2.5-23.8s-8.5,10.5-18.2,16.4c-10.5,6.4-26.3,2.2-37.6-2.1
	c-8.6-3.3-23.9-21.5-16-43.3c6.1-16.7,26.5-19.5,39-16.4c13.5,3.3,25.1,17,30,23.5c1.5,2,2.8,4.1,3.7,6.4c0,0,21.7-31.3,58.7-46
	c28.9-11.4,68.3-27.1,84.2-33.5l-34.8-52.5C1186,439,1071.6,465.7,1045.1,503.3z"/>
<path class="st0" d="M1774.5,283.3c-13.3-18.7-38.7-0.7-84.7,26.7s-68.7,29.3-118,26c-49.3-3.3-127.3,7.3-208,34.7
	c-64.6,21.9-114.7,47.2-132,56.4l34.5,52.1c36.2-14.3,73.3-27.9,140.9-48.5c72-22,114-22.7,168.7-27.3
	c54.7-4.7,135.3-30.7,158.7-50.2C1757.8,333.7,1787.8,302,1774.5,283.3z"/>
</svg>
