<svg version="1" id="Layer_1" xmlns="http://www.w3.org/2000/svg" xmlns:xlink="http://www.w3.org/1999/xlink" x="0px" y="0px" style="enable-background:new 0 0 1898 2161;" xml:space="preserve" viewBox="0 0 1898 1700">
<style type="text/css">
	.st0{fill:#273F8A; }
	.st1{fill:#FFFEF2; }
	.st2{fill:#FFE5C7; }
	.st3{fill:#ED2024; }
</style>
<g>
	<path class="st0" d="M889,1569c-11,0-21-4-29-12v0L145,842c-8-8-12-18-12-29c0-11,4-21,12-29L860,69   c16-16,42-16,58,0l715,715c16,16,16,42,0,58l-715,715C910,1565,900,1569,889,1569z M882,1536   c4,4,11,4,16,0l715-715c4-4,4-11,0-16L897,90c-4-4-11-4-16,0L166,805   c-2,2-3,5-3,8c0,3,1,6,3,8L882,1536z"/>
</g>
<path class="st1" d="M1501,1124l-209-463c-2-5-7-9-12-11c-5-2-11-1-16,3  c-31,21-193,128-334,123c-205-7-262-36-399-117c-5-3-10-3-15-2c-5,2-9,5-12,10  l-234,473c-2,5-3,10-1,15c2,5,5,9,10,11c40,20,256,119,576,146c36,3,72,5,107,5  c45,0,89-3,132-8c66-8,130-22,188-41c93-31,174-77,217-123  C1503,1139,1504,1131,1501,1124z M1143,746c61-28,111-60,131-74l95,209c-41,29-115,64-197,93  l-72-210C1113,759,1128,753,1143,746z M879,795l5,236c-62-2-145-18-232-46l78-211  C771,785,818,791,879,795z M522,679c71,42,123,71,188,90l-78,210c-0-0-1-0-1-0  c-88-29-166-66-209-97L522,679z M289,1148l123-248c45,32,123,68,212,98c0,0,0,0,1,0  l-88,238C403,1201,316,1161,289,1148z M856,1291c-114-10-215-29-299-50l88-236  c90,29,176,46,240,47l5,241C878,1293,867,1292,856,1291z M900,796c9,1,19,1,29,1  c45,2,96-7,150-26l72,210c-93,31-181,49-246,50L900,796z M910,1295l-5-242  c67-2,158-20,252-51l88,256C1144,1287,1030,1299,910,1295z M1274,1248c-3,1-6,2-9,3l-88-257  c84-29,156-63,200-93l104,231C1465,1149,1404,1205,1274,1248z"/>
<path class="st2" d="M1368,882c-41,29-115,64-197,93l-72-210c14-6,29-12,44-18  c61-28,111-60,131-74L1368,882z"/>
<path d="M1840,576c-7-7-17-15-31-25c-56-36-143-41-212-41c-2,0-3,0-5,0h0  c-44,0-65,5-97,12c-18,4-41,9-75,15c-93,15-157,24-157,24c0,0-0,0-0,0c0,0-0,0-0,0  c-0,0-35,5-79,5c-19,0-38-1-55-3c-0,0-0,0-0,0c9-9,24-23,44-32  c37-15,91-36,91-36c0,0,0,0,0,0c41-17,79-30,147-51c61-19,99-22,144-25c7-1,14-1,22-2  c27-2,61-10,94-20c20-6,55-19,73-33c11-9,26-23,37-38c18-25,13-42,6-52  c-7-9-16-14-27-14c-17,0-36,12-65,29c-4,2-8,5-12,7c-32,19-51,25-81,25  c-8,0-16-0-28-1c-6-0-13-1-20-1c-56,0-127,13-194,36c-73,25-128,54-139,60  c-9,2-42,9-78,20c-57,17-92,36-108,56c-7-10-20-24-39-35c-24-14-46-24-72-24  c-3,0-5,0-8,0c-3,0-6,1-8,3c-3-2-6-3-9-3c-1,0-1,0-2,0c-10,1-32,9-46,31  c-23,36-20,94,9,172c2,5,7,9,13,10c1,0,1,0,2,0c5,0,10-3,13-7c2-4,6-10,11-17  c-5,9-9,16-11,23c-5,12-10,25-3,35c4,7,14,15,54,27c20,6,39,11,40,11  c1,0,2,0,4,0c3,0,5-1,7-2c0,0,1,0,1,1c2,1,4,1,6,1c3,0,7-1,9-3  c0-0,16-13,37-26c34-22,51-27,59-27c3-0,7-2,9-4c1,1,2,1,3,2  c2,1,53,19,86,19c0,0,1,0,1,0c31-0,74-11,82-14c44-4,90-12,139-20  c68-11,138-23,203-25c3-0,7-0,10-0c52,0,93,10,123,17c19,5,34,8,47,8  c10,0,18-2,25-7c8-5,13-10,17-14c6-7,9-15,9-23C1853,594,1849,585,1840,576z M1199,665  c-31,0-82-18-82-18c-11-30,10-68,10-68c55,7,110,1,130-1l13,76C1257,657,1224,665,1199,665z   M1818,627c-25,17-85-23-197-21c-109,2-230,33-336,44l-13-76c19-3,75-11,150-23  c94-16,102-27,174-27s154,7,204,39S1843,610,1818,627z"/>
<path class="st2" d="M1481,1132c-17,18-77,73-207,116c-3,1-6,2-9,3l-88-257c84-29,156-63,200-93  L1481,1132z"/>
<path class="st2" d="M1245,1257c-101,30-215,42-335,37l-5-242c67-2,158-20,252-51L1245,1257z"/>
<path class="st2" d="M1151,981c-93,31-181,49-246,50l-5-235c9,1,19,1,29,1c45,2,96-7,150-26  L1151,981z"/>
<path class="st2" d="M884,1031c-62-2-145-18-232-46l78-211c41,10,88,17,149,21L884,1031z"/>
<path class="st2" d="M889,1294c-11-1-23-1-34-2c-114-10-215-29-299-50l88-236  c90,29,176,46,240,47L889,1294z"/>
<path class="st2" d="M624,999l-88,238c-134-35-221-75-247-88l123-248c45,32,123,68,212,98  C624,998,624,998,624,999z"/>
<path class="st2" d="M709,769l-78,210c-0-0-1-0-1-0c-88-29-166-66-209-97l100-203  C593,721,644,750,709,769z"/>
<path class="st1" d="M899,449c0,0-88,9-25,183c0,0,33-54,62-68c0,0-14-33,8-45  C944,520,927,482,899,449z"/>
<path class="st1" d="M1013,535c0,0,2-16,16-24c0,0-12-23-40-40c-28-16-47-23-72-21c0,0,15,20,39,66  C956,515,972,517,1013,535z"/>
<path class="st1" d="M942,539c-2,11,25,23,57,21c16-1,10-14-2-19S944,527,942,539z"/>
<path class="st1" d="M947,574c0,0,34,43,34,131c0,0-76-18-85-32C888,660,947,574,947,574z"/>
<circle class="st1" cx="1067" cy="566" r="19"/>
<path d="M792,644l-81-129l-0-0l-0-0c-7-11-17-20-28-26c-6-3-11-5-17-6  c-7-1-13-1-20-2c-1-4-5-8-10-10c0,0-367-119-373-121l-17-6c-9-3-18-4-28-4  c-12,0-24,2-37,6c-70,23-103,56-122,76c-2,2-4,4-6,6c-5,5-9,12-9,20  c-1,11,4,21,12,28l19,15c3,3,6,6,9,9c3,2,16,12,20,14c8,4,16,7,26,9l390,86  c1,0,2,0,3,0c5,0,9-2,12-6c6,4,13,8,20,12l2,1l2,1l215,48l35,8L792,644z"/>
<path class="st3" d="M145,414c37-31,93-44,114-48l-17-6c0,0,0,0,0,0c-1-0-2-1-3-1  c-0-0-1-0-1-0c-1-0-1-0-2-1c-0-0-1-0-1-0c-1-0-1-0-2-0c-0-0-1-0-1-0  c-1-0-1-0-2-0c-0-0-1-0-1-0c-1-0-2-0-3-0c-0,0-1,0-1-0c-1-0-2-0-3-0  c-0,0-1,0-1,0c-1,0-2,0-2,0c-1,0-2,0-3,0c-0,0-1,0-1,0c-1,0-3,0-4,0c-0,0-1,0-1,0  c-1,0-2,0-3,0c-0,0-1,0-1,0c-1,0-2,0-2,0c-1,0-1,0-2,0c-1,0-2,0-2,1  c-1,0-1,0-2,0c-1,0-2,0-2,1c-1,0-1,0-1,0c-1,0-2,1-3,1c-0,0-1,0-1,0  c-1,0-3,1-4,1c-73,24-103,60-122,78c-1,1-1,2-2,2c-2,3-3,5-3,8c0,0-0,1-0,1  s0,1,0,1c0,4,2,8,4,11c1,1,2,2,2,2l17,13l4,3h0c0,0,0,0,0,0c3,3,6,6,8,8  C97,471,105,448,145,414z"/>
<path class="st3" d="M386,504c-1-8-2-16-2-24c0-1,0-2,1-3c1-5,3-7,4-9c0-1,1-1,2-2  c2-2,5-3,8-4c10-4,22-5,33-6c11-1,21-2,32-3c17-1,36-3,54-4l-224-73  c-20,3-97,18-137,52c-43,37-44,53-44,73c7,3,14,6,23,8l269,59c-4-10-9-26-13-41  C389,520,387,512,386,504z"/>
<path class="st3" d="M453,500c-1-1-1-1-2-2c-3-2-6-3-9-4c-3-0-6,0-8,2c-1,2-2,4-1,6  c1,2,2,4,3,5c4,4,10,6,16,4c1-1,3-2,3-3c1-2,1-4-0-6  C455,502,454,501,453,500z"/>
<path class="st3" d="M469,514c-1,2-1,3-2,5c-5,8-14,10-24,9c-4-1-7-2-11-4  c-6-4-10-9-13-15c-2-6-2-13,1-19c6-11,22-14,35-6c4,2,7,4,9,7c0,0,0,0,0,0  c0,0,1,1,1,1c0,0,0,0,0,0c0,0,1,1,1,1c0,0,0,0,0,0c0,0,0,1,1,1  c0,0,0,0,0,0c0,0,0,1,1,1c0,0,0,0,0,1c0,0,0,1,0,1c0,0,0,0,0,1  c0,0,0,0,0,1c0,0,0,0,0,1c0,0,0,1,0,1c0,0,0,1,0,1c0,0,0,0,0,1  c0,0,0,1,0,1c0,0,0,0,0,1c0,0,0,1,0,1c0,0,0,1,0,1c0,0,0-0,0-0c0-0,0-0,0-0  c0-1,0-1,1-2c0-0,0-0,0-1c0-0,0-1,1-1c0-0,0-0,0-1c0-0,0-1,1-1  c0-0,0-0,1-1c0-0,0-1,1-1c0-0,0-0,1-1c0-0,0-1,1-1c0-0,0-0,1-1  c0-0,1-0,1-1c0-0,1-0,1-1c0-0,1-0,1-1c0-0,1-0,1-1c0-0,1-0,1-1  c0-0,1-0,1-1c0-0,1-0,1-1c0-0,1-0,1-1c0-0,1-0,1-1c0-0,1-0,1-1  c0-0,1-0,1-1c0-0,1-0,1-0c0-0,1-0,1-0c0-0,1-0,1-0c0-0,1-0,1-0  c0-0,1-0,1-0c0-0,1-0,1-0c0-0,1-0,1-0c0-0,1-0,1-0c0-0,1-0,1-0  c0-0,1-0,1-0c0-0,1-0,1-0c0-0,1-0,1-0c1-0,1-0,1-0c0-0,1-0,1-0  c1-0,1-0,1-0c0-0,1-0,1-0c1-0,1-0,2-0c0-0,1-0,1-0c1-0,1-0,2-0  c0-0,1-0,1-0c1-0,1-0,2-0c0-0,1-0,1-0c1-0,1-0,2-0c0-0,1-0,1-0  c1-0,1-0,2-0c0,0,1-0,1-0c1-0,1-0,2-0c0,0,1-0,1-0c1-0,1-0,2-0  c0,0,1-0,1-0c1,0,1-0,2-0c0,0,1-0,1-0c1,0,1-0,2-0c0,0,1,0,1-0  c1,0,1-0,2-0c0,0,1,0,1-0c1,0,1-0,2-0c0,0,1,0,1,0c1,0,1,0,2-0c0,0,1,0,1,0  c1,0,1,0,2,0c36-1,74,4,90,5l-74-24c-1,0-2,0-3,0c-0,0-0,0-1,0c-1,0-2,0-3,0  c-0,0-0,0-0,0c-7,0-14,1-21,1c0,0,0,0,0,0c-52,3-121,7-126,12c-1,1-1,1-1,2c0,0,0,0,0,0  c0,0,0,0-0,0c-0,0-0,0-0,1c-0,0-0,0-0,1c-0,0-0,1-0,1c-0,0-0,0-0,1  c-0,0-0,1-0,1c-0,0-0,1-0,1c-0,0-0,0-0,1c-0,0-0,1-0,1c0,0-0,0-0,1  c-0,0-0,1-0,1c0,0-0,0-0,1c-0,1-0,1-0,2c0,0,0,0,0,0c-0,1-0,1-0,2c0,0,0,0,0,0  c0,1,0,1,0,2v0c0,25,16,67,21,80l3,1l36,8l64,14C495,565,468,533,469,514z"/>
<path class="st1" d="M699,523C699,523,699,523,699,523c-1-1-1-2-2-2c-0-0-0-0-1-1  c-0-1-1-1-1-2c-0-0-0-0-1-1c-1-1-1-1-2-2c0,0-0-0-0-0c0,0,0,0,0,0  c-3-4-7-7-11-10c-34,9-104,54-144,82c5,3,9,6,14,9c0,0,0,0,0,0c0,0,1,0,1,1  c0,0,1,1,1,1c1,1,3,2,4,3c0,0,0,0,0,0c1,1,2,1,3,2c1,1,2,1,3,2l215,48  L699,523z"/>
<path class="st3" d="M528,577c0,0-45-49-44-60c1-13,2-30,176-19C660,498,602,524,528,577z"/>
<path class="st0" d="M1801,564c-51-33-132-39-204-39s-80,11-174,27c-75,12-131,21-150,23l13,76  c106-11,227-42,336-44c112-3,172,38,197,21S1851,597,1801,564z"/>
<path class="st1" d="M1128,579c0,0-21,38-10,68c0,0,51,19,82,18c25-0,57-8,72-11l-13-76  C1238,580,1183,585,1128,579z"/>
<path class="st1" d="M1045,503c-31,44-26,47-20,96c0,0-24,4-75-31c0,0,40,27,46,137c0,0,66-53,103-57  c0,0-2-12,1-28c1-6,5-12,7-17c3-9,3-24,3-24s-9,11-18,16c-11,6-26,2-38-2  c-9-3-24-22-16-43c6-17,27-20,39-16c14,3,25,17,30,24c2,2,3,4,4,6c0,0,22-31,59-46  c29-11,68-27,84-34l-35-53C1186,439,1072,466,1045,503z"/>
<path class="st0" d="M1775,283c-13-19-39-1-85,27s-69,29-118,26c-49-3-127,7-208,35  c-65,22-115,47-132,56l35,52c36-14,73-28,141-49c72-22,114-23,169-27  c55-5,135-31,159-50C1758,334,1788,302,1775,283z"/>
</svg>
